<?xml version="1.0" encoding="UTF-8" standalone="no"?>
<!DOCTYPE svg PUBLIC "-//W3C//DTD SVG 20010904//EN"
              "http://www.w3.org/TR/2001/REC-SVG-20010904/DTD/svg10.dtd">

<svg xmlns="http://www.w3.org/2000/svg"
     width="15in" height="10in"
     viewBox="0 0 1080 720">
  <path id="Selection"
        fill="none" stroke="black" stroke-width="1"
        d="M 724.00,311.00
           C 724.00,311.00 743.00,294.73 743.00,294.73
             759.14,280.97 768.10,272.18 790.00,269.84
             794.79,269.32 796.89,268.74 802.00,269.09
             809.25,269.58 816.25,271.01 823.00,273.76
             825.86,274.92 831.51,278.68 834.00,278.57
             837.75,278.41 840.59,273.73 847.00,271.80
             850.70,270.68 856.97,271.00 861.00,271.00
             873.95,271.00 881.53,269.72 887.00,284.00
             896.27,277.44 899.66,271.15 912.00,271.00
             912.00,271.00 941.00,271.00 941.00,271.00
             945.91,270.99 959.03,270.51 963.00,271.85
             968.86,273.84 972.19,278.32 974.00,284.00
             978.26,280.09 984.65,274.32 990.00,272.21
             993.47,270.84 996.36,271.01 1000.00,271.00
             1009.95,270.98 1022.61,268.66 1029.15,278.04
             1031.48,281.38 1032.18,284.99 1031.90,289.00
             1031.45,295.58 1027.18,303.13 1024.25,309.00
             1024.25,309.00 1008.69,342.00 1008.69,342.00
             1004.36,351.42 1002.02,352.15 1002.00,363.00
             1001.99,370.04 1003.13,388.49 1000.31,393.99
             997.90,398.70 985.62,408.22 981.00,412.08
             975.22,416.91 962.38,428.68 956.00,430.89
             951.15,432.58 938.65,432.06 933.00,432.00
             926.33,431.92 920.98,430.39 917.69,423.99
             915.16,419.07 916.00,407.83 916.00,402.00
             906.08,409.42 893.93,421.53 884.00,427.13
             871.49,434.18 852.91,435.50 839.00,432.48
             831.92,430.95 824.72,427.52 819.01,423.10
             816.67,421.29 812.84,416.50 809.96,416.91
             808.06,417.18 801.18,422.55 799.00,424.00
             792.65,428.20 788.34,429.92 781.00,431.84
             776.80,432.94 776.00,432.74 772.00,433.16
             750.05,435.51 729.05,430.67 714.32,413.00
             705.91,402.90 705.28,397.43 701.00,386.00
             700.12,389.73 699.14,392.73 696.89,395.91
             693.62,400.55 674.67,415.44 669.00,420.27
             661.18,426.94 656.79,431.87 646.00,432.00
             646.00,432.00 629.00,432.00 629.00,432.00
             618.72,431.98 612.39,429.63 609.00,419.00
             600.13,427.67 595.66,431.98 583.00,432.00
             583.00,432.00 540.00,432.00 540.00,432.00
             534.24,432.00 523.94,432.81 519.00,430.31
             510.50,426.01 510.01,419.34 510.00,411.00
             504.67,415.89 496.50,422.41 490.00,425.51
             473.14,433.55 452.32,432.03 434.00,432.00
             419.63,431.98 414.02,426.37 414.00,412.00
             414.00,412.00 414.00,329.00 414.00,329.00
             411.46,331.22 407.80,333.82 406.60,337.01
             405.69,339.43 406.00,347.95 406.00,351.00
             406.00,351.00 406.00,382.00 406.00,382.00
             405.98,397.93 398.36,400.88 387.00,410.41
             381.41,415.10 366.78,428.17 361.00,430.52
             356.29,432.43 337.23,432.65 332.00,431.66
             332.00,431.66 325.00,429.54 325.00,429.54
             320.96,429.10 320.42,431.95 310.00,432.00
             298.32,432.05 284.14,434.76 278.05,422.00
             276.83,419.45 276.39,416.77 276.00,414.00
             267.97,418.29 261.65,426.50 254.00,430.08
             249.69,432.10 246.59,431.99 242.00,432.00
             242.00,432.00 213.00,432.00 213.00,432.00
             207.57,432.06 194.48,432.66 190.00,430.77
             184.33,428.39 182.08,424.44 180.00,419.00
             175.97,422.29 168.50,428.92 164.00,430.78
             160.67,432.15 157.52,431.99 154.00,432.00
             142.80,432.02 128.43,434.51 123.85,421.00
             122.95,418.34 123.03,415.76 123.00,413.00
             112.35,421.71 104.39,431.93 90.00,432.00
             81.57,432.04 69.65,433.68 63.19,427.66
             58.13,422.95 58.01,418.38 58.00,412.00
             58.00,412.00 58.00,349.00 58.00,349.00
             52.03,349.00 43.12,349.89 38.04,346.77
             28.74,341.08 30.89,327.50 31.00,318.00
             31.05,314.16 31.19,311.43 33.23,308.01
             35.71,303.84 43.06,298.37 47.00,295.08
             52.87,290.18 71.17,273.82 77.00,271.85
             79.89,270.88 82.99,271.00 86.00,271.00
             86.00,271.00 153.00,271.00 153.00,271.00
             162.99,271.02 162.53,272.53 165.42,272.68
             167.17,272.76 171.01,271.01 179.00,271.00
             191.83,270.98 205.01,268.11 209.00,284.00
             214.26,280.28 219.03,275.11 225.00,272.53
             228.58,270.99 231.22,271.02 235.00,271.00
             249.28,270.93 266.02,268.21 267.00,288.00
             272.60,283.81 283.22,273.80 289.00,271.85
             292.46,270.69 298.22,271.00 302.00,271.17
             302.00,271.17 320.00,271.17 320.00,271.17
             324.94,272.29 327.06,275.14 330.00,275.14
             332.50,275.14 334.60,272.99 338.00,271.85
             340.91,270.88 343.98,271.00 347.00,271.00
             347.00,271.00 390.00,271.00 390.00,271.00
             396.25,271.00 418.54,270.34 423.00,271.85
             427.72,273.45 431.55,277.28 433.15,282.00
             434.19,285.07 434.00,288.77 434.00,292.00
             438.99,287.41 453.39,274.77 459.00,272.48
             462.26,271.15 464.56,271.05 468.00,271.00
             493.41,270.70 517.32,268.52 538.00,286.00
             545.72,276.65 553.76,271.02 566.00,271.00
             566.00,271.00 647.00,271.00 647.00,271.00
             660.90,271.02 664.24,275.16 668.00,288.00
             673.15,283.09 683.31,273.72 690.00,271.79
             694.18,270.58 707.00,270.94 712.00,271.00
             719.90,271.10 726.43,273.96 729.15,282.00
             731.86,290.00 726.63,303.10 724.00,311.00 Z
           M 818.00,306.00
           C 819.85,303.53 825.10,297.95 824.89,295.01
             824.69,292.18 821.21,289.82 819.00,288.48
             812.14,284.30 805.88,283.01 798.00,283.00
             782.81,282.98 769.35,287.14 759.93,300.00
             751.10,312.04 749.84,323.65 750.00,338.00
             750.30,363.25 768.07,383.88 794.00,383.91
             794.00,383.91 805.00,383.91 805.00,383.91
             811.20,383.16 823.97,378.65 826.98,372.96
             828.19,370.67 827.99,367.54 828.00,365.00
             828.00,365.00 828.00,328.00 828.00,328.00
             828.00,328.00 794.00,328.00 794.00,328.00
             794.00,328.00 794.00,344.00 794.00,344.00
             794.00,344.00 812.00,344.00 812.00,344.00
             812.00,347.84 812.68,360.95 810.98,363.61
             808.84,366.95 803.64,367.88 800.00,367.98
             790.62,368.25 783.63,366.20 777.19,358.98
             762.19,342.19 766.35,298.22 799.00,299.01
             808.13,299.24 810.38,302.82 818.00,306.00 Z
           M 155.00,284.00
           C 155.00,284.00 81.00,284.00 81.00,284.00
             81.00,284.00 81.00,300.00 81.00,300.00
             81.00,300.00 108.00,300.00 108.00,300.00
             108.00,300.00 108.00,383.00 108.00,383.00
             108.00,383.00 127.00,383.00 127.00,383.00
             127.00,383.00 127.00,300.00 127.00,300.00
             127.00,300.00 155.00,300.00 155.00,300.00
             155.00,300.00 155.00,284.00 155.00,284.00 Z
           M 192.00,284.00
           C 192.00,284.00 173.00,284.00 173.00,284.00
             173.00,284.00 173.00,383.00 173.00,383.00
             173.00,383.00 192.00,383.00 192.00,383.00
             192.00,383.00 192.00,340.00 192.00,340.00
             192.00,340.00 230.00,340.00 230.00,340.00
             230.00,340.00 230.00,383.00 230.00,383.00
             230.00,383.00 249.00,383.00 249.00,383.00
             249.00,383.00 249.00,284.00 249.00,284.00
             249.00,284.00 230.00,284.00 230.00,284.00
             230.00,284.00 230.00,323.00 230.00,323.00
             230.00,323.00 192.00,323.00 192.00,323.00
             192.00,323.00 192.00,284.00 192.00,284.00 Z
           M 347.00,383.00
           C 347.00,383.00 330.66,332.00 330.66,332.00
             330.66,332.00 322.72,308.00 322.72,308.00
             322.72,308.00 317.67,292.00 317.67,292.00
             317.67,292.00 314.30,284.99 314.30,284.99
             314.30,284.99 307.00,284.00 307.00,284.00
             307.00,284.00 299.00,284.00 299.00,284.00
             299.00,284.00 293.51,285.02 293.51,285.02
             293.51,285.02 290.33,291.00 290.33,291.00
             290.33,291.00 285.33,307.00 285.33,307.00
             285.33,307.00 261.00,383.00 261.00,383.00
             264.71,383.00 277.67,383.97 279.86,381.43
             282.85,377.97 284.40,360.74 288.43,358.02
             290.27,356.78 293.82,357.00 296.00,357.00
             300.11,356.99 316.03,356.30 318.70,358.02
             320.98,359.49 321.48,362.57 322.15,365.00
             322.15,365.00 327.00,383.00 327.00,383.00
             327.00,383.00 347.00,383.00 347.00,383.00 Z
           M 416.00,284.00
           C 416.00,284.00 342.00,284.00 342.00,284.00
             342.00,284.00 342.00,300.00 342.00,300.00
             342.00,300.00 369.00,300.00 369.00,300.00
             369.00,300.00 369.00,383.00 369.00,383.00
             369.00,383.00 388.00,383.00 388.00,383.00
             388.00,383.00 388.00,300.00 388.00,300.00
             388.00,300.00 416.00,300.00 416.00,300.00
             416.00,300.00 416.00,284.00 416.00,284.00 Z
           M 464.00,383.00
           C 481.18,383.00 506.64,384.65 521.00,374.37
             544.50,357.54 545.92,308.70 521.00,292.55
             505.56,282.53 481.92,284.00 464.00,284.00
             464.00,284.00 464.00,383.00 464.00,383.00 Z
           M 620.00,284.00
           C 620.00,284.00 560.00,284.00 560.00,284.00
             560.00,284.00 560.00,383.00 560.00,383.00
             560.00,383.00 621.00,383.00 621.00,383.00
             621.00,383.00 621.00,367.00 621.00,367.00
             621.00,367.00 579.00,367.00 579.00,367.00
             579.00,367.00 579.00,340.00 579.00,340.00
             579.00,340.00 613.00,340.00 613.00,340.00
             613.00,340.00 613.00,324.00 613.00,324.00
             613.00,324.00 579.00,324.00 579.00,324.00
             579.00,324.00 579.00,300.00 579.00,300.00
             579.00,300.00 620.00,300.00 620.00,300.00
             620.00,300.00 620.00,284.00 620.00,284.00 Z
           M 649.00,284.00
           C 649.00,284.00 629.00,284.00 629.00,284.00
             629.00,284.00 652.00,360.00 652.00,360.00
             652.00,360.00 656.98,376.00 656.98,376.00
             656.98,376.00 659.72,382.01 659.72,382.01
             659.72,382.01 667.00,383.00 667.00,383.00
             667.00,383.00 682.00,383.00 682.00,383.00
             682.00,383.00 688.98,360.00 688.98,360.00
             688.98,360.00 712.00,284.00 712.00,284.00
             712.00,284.00 701.00,284.00 701.00,284.00
             701.00,284.00 693.72,284.99 693.72,284.99
             693.72,284.99 687.63,304.00 687.63,304.00
             687.63,304.00 677.15,343.00 677.15,343.00
             677.15,343.00 671.00,365.00 671.00,365.00
             671.00,365.00 660.12,326.00 660.12,326.00
             660.12,326.00 649.00,284.00 649.00,284.00 Z
           M 869.00,284.00
           C 869.00,284.00 850.00,284.00 850.00,284.00
             850.00,284.00 850.00,330.00 850.00,330.00
             850.00,343.30 850.02,357.09 856.88,369.00
             864.93,382.97 877.64,384.17 892.00,384.00
             904.03,383.85 914.14,378.77 920.10,368.00
             926.17,357.01 926.00,344.14 926.00,332.00
             926.00,332.00 926.00,284.00 926.00,284.00
             926.00,284.00 908.00,284.00 908.00,284.00
             908.00,284.00 908.00,340.00 908.00,340.00
             907.98,352.16 904.93,367.18 890.00,367.96
             873.30,368.83 869.07,354.94 869.00,341.00
             869.00,341.00 869.00,284.00 869.00,284.00 Z
           M 974.00,331.00
           C 974.00,331.00 961.15,297.00 961.15,297.00
             961.15,297.00 955.30,284.99 955.30,284.99
             955.30,284.99 936.00,284.00 936.00,284.00
             936.00,284.00 956.86,329.00 956.86,329.00
             961.35,339.08 964.98,341.49 965.00,353.00
             965.00,353.00 965.00,383.00 965.00,383.00
             965.00,383.00 984.13,383.00 984.13,383.00
             984.13,383.00 984.13,355.00 984.13,355.00
             984.13,355.00 984.13,348.00 984.13,348.00
             984.13,348.00 994.75,325.00 994.75,325.00
             994.75,325.00 1014.00,284.00 1014.00,284.00
             1014.00,284.00 994.00,284.00 994.00,284.00
             994.00,284.00 976.00,331.00 976.00,331.00
             976.00,331.00 974.00,331.00 974.00,331.00 Z
           M 303.00,299.00
           C 303.00,299.00 305.00,299.00 305.00,299.00
             305.00,299.00 316.00,342.00 316.00,342.00
             316.00,342.00 291.00,342.00 291.00,342.00
             291.00,342.00 303.00,299.00 303.00,299.00 Z
           M 483.00,299.00
           C 492.17,299.08 503.86,299.90 510.90,306.33
             523.36,317.72 522.73,350.44 509.83,361.47
             503.40,366.97 491.23,367.93 483.00,368.00
             483.00,368.00 483.00,299.00 483.00,299.00 Z" />
</svg>
