<?xml version="1.0" encoding="UTF-8" standalone="no"?>
<!DOCTYPE svg PUBLIC "-//W3C//DTD SVG 20010904//EN"
              "http://www.w3.org/TR/2001/REC-SVG-20010904/DTD/svg10.dtd">

<svg xmlns="http://www.w3.org/2000/svg"
     width="4.51389in" height="3.61111in"
     viewBox="0 0 325 260">
  <path id="Selection"
        fill="none" stroke="black" stroke-width="1"
        d="M 126.00,143.00
           C 122.21,136.12 119.93,137.32 118.02,132.90
             118.02,132.90 112.20,108.00 112.20,108.00
             112.20,108.00 104.94,63.00 104.94,63.00
             104.94,63.00 104.94,55.00 104.94,55.00
             104.30,49.37 102.05,39.52 108.13,36.02
             110.25,34.80 113.60,35.00 116.00,35.00
             116.00,35.00 197.00,35.00 197.00,35.00
             208.60,35.02 208.99,38.44 209.00,49.00
             215.07,49.00 219.76,48.88 224.95,52.65
             235.83,60.46 233.47,77.35 224.95,85.91
             221.27,89.55 216.70,92.10 212.00,94.13
             208.95,95.44 205.01,96.24 203.17,99.22
             202.06,101.02 201.27,106.63 200.80,109.00
             200.80,109.00 195.83,130.98 195.83,130.98
             193.68,137.67 191.23,135.32 187.00,143.00
             187.00,143.00 193.00,141.00 193.00,141.00
             187.66,159.69 169.48,162.08 153.00,162.00
             147.85,161.98 145.99,161.78 141.00,160.28
             131.79,157.51 123.04,152.02 121.00,142.00
             121.00,142.00 126.00,143.00 126.00,143.00 Z
           M 201.00,42.00
           C 201.00,42.00 112.00,42.00 112.00,42.00
             112.00,42.00 112.00,49.00 112.00,49.00
             112.00,49.00 201.00,49.00 201.00,49.00
             201.00,49.00 201.00,42.00 201.00,42.00 Z
           M 205.00,89.00
           C 211.61,86.15 218.16,83.23 222.30,77.00
             225.88,71.62 226.24,62.00 219.89,58.45
             216.62,56.62 211.69,57.00 208.00,57.00
             208.00,57.00 205.00,89.00 205.00,89.00 Z
           M 148.00,58.00
           C 148.00,58.00 123.00,58.00 123.00,58.00
             123.07,61.39 123.69,69.86 126.56,71.98
             128.55,73.45 136.30,73.04 139.00,73.00
             140.64,72.97 142.91,73.07 144.28,72.01
             146.72,70.11 147.75,61.11 148.00,58.00 Z
           M 191.00,58.00
           C 191.00,58.00 165.00,58.00 165.00,58.00
             165.00,58.00 168.00,73.00 168.00,73.00
             168.00,73.00 188.00,73.00 188.00,73.00
             188.00,73.00 191.00,58.00 191.00,58.00 Z
           M 198.00,80.00
           C 198.00,80.00 115.00,80.00 115.00,80.00
             117.62,88.96 119.50,95.86 124.46,104.00
             125.59,105.85 128.49,110.25 130.30,111.26
             135.00,113.89 140.38,103.94 148.00,103.94
             151.07,103.94 153.09,105.96 157.00,105.84
             161.64,105.69 163.17,102.74 168.00,104.41
             173.24,106.24 177.98,111.84 180.96,111.81
             183.91,111.77 186.54,107.20 188.00,105.00
             192.91,97.56 196.24,88.72 198.00,80.00 Z
           M 176.00,120.00
           C 170.26,116.98 161.63,112.56 155.00,113.20
             149.66,113.71 141.81,117.53 137.00,120.00
             145.70,129.83 150.05,121.28 158.00,122.42
             164.35,123.33 168.57,128.40 176.00,120.00 Z" />
</svg>
