<?xml version="1.0" encoding="UTF-8" standalone="no"?>
<!DOCTYPE svg PUBLIC "-//W3C//DTD SVG 20010904//EN"
              "http://www.w3.org/TR/2001/REC-SVG-20010904/DTD/svg10.dtd">

<svg xmlns="http://www.w3.org/2000/svg"
     width="15in" height="10in"
     viewBox="0 0 1080 720">
  <path id="Selection"
        fill="none" stroke="black" stroke-width="1"
        d="M 632.00,317.00
           C 635.16,310.94 639.61,310.08 646.00,310.00
             654.37,309.90 665.14,309.24 673.00,311.75
             677.76,313.26 696.47,320.58 700.00,320.38
             703.02,320.20 708.77,315.88 712.00,314.27
             719.62,310.46 725.53,309.01 734.00,309.00
             740.00,308.99 748.36,308.55 754.00,309.90
             754.00,309.90 772.00,315.18 772.00,315.18
             775.13,315.15 777.30,312.98 780.00,311.68
             783.28,310.10 785.46,310.05 789.00,310.23
             789.00,310.23 810.00,310.23 810.00,310.23
             810.00,310.23 825.00,314.66 825.00,314.66
             829.98,314.44 829.93,310.14 841.00,310.00
             841.00,310.00 882.00,310.00 882.00,310.00
             892.34,310.13 899.85,314.68 902.58,314.62
             904.83,314.58 907.62,312.20 910.00,311.22
             912.83,310.07 915.02,310.04 918.00,310.00
             918.00,310.00 935.00,310.00 935.00,310.00
             945.16,310.13 964.56,318.52 975.00,322.00
             985.90,325.64 996.90,328.66 995.90,343.00
             995.53,348.43 992.55,353.12 990.42,358.00
             990.42,358.00 977.75,385.00 977.75,385.00
             973.11,394.35 969.02,400.29 969.00,411.00
             968.99,419.66 971.01,435.31 964.66,441.66
             958.56,447.77 944.29,446.10 936.00,446.00
             928.02,445.90 920.48,442.49 913.00,440.00
             910.65,439.22 905.24,437.14 903.00,437.34
             898.77,437.72 896.64,441.97 887.00,445.56
             878.08,448.88 870.33,448.01 861.00,448.00
             850.12,447.98 844.10,445.03 834.00,441.67
             830.65,440.55 823.22,437.49 820.00,438.16
             816.97,438.80 812.20,443.05 803.00,445.97
             794.27,448.75 785.06,448.10 776.00,448.00
             766.41,447.88 757.00,444.00 748.00,441.00
             748.00,441.00 713.00,428.68 713.00,428.68
             713.00,428.68 700.00,421.00 700.00,421.00
             699.42,424.76 697.94,430.43 696.62,434.00
             691.46,447.95 681.09,446.00 669.00,446.00
             664.12,446.00 657.63,446.31 653.00,445.33
             653.00,445.33 640.00,441.65 640.00,441.65
             636.80,441.65 634.43,444.01 631.00,445.15
             628.07,446.12 625.05,446.00 622.00,446.00
             622.00,446.00 572.00,446.00 572.00,446.00
             558.48,445.98 549.59,439.38 543.42,439.12
             540.66,439.00 535.93,441.86 533.00,442.91
             526.71,445.17 521.63,445.99 515.00,446.00
             515.00,446.00 486.00,446.00 486.00,446.00
             472.02,445.98 446.32,434.77 432.00,430.00
             431.04,449.32 412.97,446.16 399.00,446.00
             399.00,446.00 387.00,444.93 387.00,444.93
             387.00,444.93 381.00,445.95 381.00,445.95
             381.00,445.95 362.00,445.95 362.00,445.95
             353.33,445.96 341.02,441.52 333.00,438.00
             329.25,444.64 325.32,445.91 318.00,446.00
             318.00,446.00 275.00,446.00 275.00,446.00
             268.69,445.99 268.05,445.99 262.00,444.00
             260.01,443.35 254.18,441.14 252.42,441.26
             249.44,441.48 247.30,444.64 242.00,445.83
             242.00,445.83 221.00,445.83 221.00,445.83
             211.09,445.88 200.23,439.71 196.09,439.83
             192.95,439.91 191.63,442.48 187.99,444.32
             184.30,446.18 180.99,445.99 177.00,446.00
             177.00,446.00 163.00,446.00 163.00,446.00
             153.99,445.89 135.39,438.46 126.00,435.33
             117.69,432.56 106.01,430.29 102.85,421.00
             101.88,418.13 102.00,414.99 102.00,412.00
             102.00,412.00 102.00,370.00 102.00,370.00
             102.00,367.66 102.20,364.26 100.98,362.22
             97.84,357.00 86.72,358.13 80.56,350.82
             77.43,347.11 77.06,343.62 77.00,339.00
             76.88,328.48 74.78,314.03 88.00,310.21
             90.43,309.92 93.47,310.00 96.00,310.21
             96.00,310.21 150.00,310.21 150.00,310.21
             150.00,310.21 170.00,310.21 170.00,310.21
             170.00,310.21 193.00,310.21 193.00,310.21
             202.60,310.12 210.19,314.98 213.58,314.74
             215.77,314.58 218.61,312.20 221.00,311.22
             224.37,309.84 227.45,310.01 231.00,310.16
             231.00,310.16 250.00,310.16 250.00,310.16
             250.00,310.16 272.00,317.00 272.00,317.00
             275.62,310.06 280.99,310.01 288.00,310.00
             288.00,310.00 305.00,310.00 305.00,310.00
             312.07,310.09 315.04,311.78 318.00,311.78
             321.58,311.79 322.34,310.04 331.00,310.00
             331.00,310.00 394.00,310.00 394.00,310.00
             404.78,310.02 414.89,314.63 425.00,318.00
             429.32,310.35 433.93,310.01 442.00,310.00
             442.00,310.00 472.00,310.00 472.00,310.00
             483.84,310.06 498.60,316.20 510.00,320.00
             515.31,306.58 531.27,310.00 543.00,310.00
             543.00,310.00 603.00,310.00 603.00,310.00
             615.45,310.02 620.51,314.38 632.00,317.00 Z
           M 201.00,339.00
           C 201.00,339.00 133.00,339.00 133.00,339.00
             133.00,339.00 133.00,354.00 133.00,354.00
             133.00,354.00 158.00,354.00 158.00,354.00
             158.00,354.00 158.00,429.00 158.00,429.00
             158.00,429.00 175.00,429.00 175.00,429.00
             175.00,429.00 175.00,354.00 175.00,354.00
             175.00,354.00 201.00,354.00 201.00,354.00
             201.00,354.00 201.00,339.00 201.00,339.00 Z
           M 233.00,339.00
           C 233.00,339.00 216.00,339.00 216.00,339.00
             216.00,339.00 216.00,429.00 216.00,429.00
             216.00,429.00 233.00,429.00 233.00,429.00
             233.00,429.00 233.00,390.00 233.00,390.00
             233.00,390.00 268.00,390.00 268.00,390.00
             268.00,390.00 268.00,429.00 268.00,429.00
             268.00,429.00 285.00,429.00 285.00,429.00
             285.00,429.00 285.00,339.00 285.00,339.00
             285.00,339.00 268.00,339.00 268.00,339.00
             268.00,339.00 268.00,375.00 268.00,375.00
             268.00,375.00 233.00,375.00 233.00,375.00
             233.00,375.00 233.00,339.00 233.00,339.00 Z
           M 346.00,339.00
           C 346.00,339.00 334.00,339.00 334.00,339.00
             331.86,339.00 328.29,338.77 326.51,340.02
             323.56,342.09 320.33,355.97 319.00,360.00
             319.00,360.00 297.00,429.00 297.00,429.00
             297.00,429.00 312.58,428.43 312.58,428.43
             312.58,428.43 316.12,422.00 316.12,422.00
             316.12,422.00 320.00,405.00 320.00,405.00
             320.00,405.00 342.00,405.00 342.00,405.00
             343.70,405.01 346.32,404.94 347.87,405.60
             353.59,408.02 353.53,423.65 356.93,427.40
             359.23,429.93 370.39,429.00 374.00,429.00
             374.00,429.00 365.67,401.00 365.67,401.00
             365.67,401.00 346.00,339.00 346.00,339.00 Z
           M 437.00,339.00
           C 437.00,339.00 369.00,339.00 369.00,339.00
             369.00,339.00 369.00,354.00 369.00,354.00
             369.00,354.00 394.00,354.00 394.00,354.00
             394.00,354.00 394.00,429.00 394.00,429.00
             394.00,429.00 411.00,429.00 411.00,429.00
             411.00,429.00 411.00,354.00 411.00,354.00
             411.00,354.00 437.00,354.00 437.00,354.00
             437.00,354.00 437.00,339.00 437.00,339.00 Z
           M 479.00,429.00
           C 494.06,429.00 517.24,430.37 530.00,421.90
             545.67,411.49 547.20,396.06 547.00,379.00
             546.85,366.38 541.71,353.85 531.00,346.60
             517.89,337.72 494.48,339.00 479.00,339.00
             479.00,339.00 479.00,429.00 479.00,429.00 Z
           M 619.00,339.00
           C 619.00,339.00 565.00,339.00 565.00,339.00
             565.00,339.00 565.00,429.00 565.00,429.00
             565.00,429.00 621.00,429.00 621.00,429.00
             621.00,429.00 621.00,414.00 621.00,414.00
             621.00,414.00 582.00,414.00 582.00,414.00
             582.00,414.00 582.00,390.00 582.00,390.00
             582.00,390.00 614.00,390.00 614.00,390.00
             614.00,390.00 614.00,375.00 614.00,375.00
             614.00,375.00 582.00,375.00 582.00,375.00
             582.00,375.00 582.00,354.00 582.00,354.00
             582.00,354.00 619.00,354.00 619.00,354.00
             619.00,354.00 619.00,339.00 619.00,339.00 Z
           M 646.00,339.00
           C 646.00,339.00 628.00,339.00 628.00,339.00
             628.00,339.00 634.28,360.00 634.28,360.00
             634.28,360.00 648.72,408.00 648.72,408.00
             648.72,408.00 655.00,429.00 655.00,429.00
             655.00,429.00 676.00,429.00 676.00,429.00
             676.00,429.00 684.28,401.00 684.28,401.00
             684.28,401.00 703.00,339.00 703.00,339.00
             703.00,339.00 694.00,339.00 694.00,339.00
             691.97,339.00 688.36,338.74 686.70,339.99
             684.19,341.89 682.04,353.50 681.12,357.00
             681.12,357.00 667.00,412.00 667.00,412.00
             662.35,407.12 660.80,395.70 659.13,389.00
             659.13,389.00 646.00,339.00 646.00,339.00 Z
           M 798.00,360.00
           C 799.80,357.93 804.84,352.70 804.81,350.02
             804.77,347.16 801.18,344.95 799.00,343.68
             792.28,339.76 787.59,339.01 780.00,339.00
             766.99,338.98 757.22,341.96 748.18,352.01
             733.43,368.43 733.17,401.64 748.18,417.96
             755.83,426.27 766.97,429.98 778.00,430.00
             786.63,430.01 802.28,428.53 806.98,419.91
             808.20,417.67 808.00,414.50 808.00,412.00
             808.00,412.00 808.00,380.00 808.00,380.00
             808.00,380.00 777.00,380.00 777.00,380.00
             777.00,380.00 777.00,394.00 777.00,394.00
             777.00,394.00 793.00,394.00 793.00,394.00
             793.00,398.15 793.90,409.66 791.40,412.57
             787.37,417.29 768.77,419.16 759.13,404.00
             749.20,388.37 754.28,357.12 776.00,353.33
             785.10,351.74 790.63,355.51 798.00,360.00 Z
           M 845.00,339.00
           C 845.00,339.00 828.00,339.00 828.00,339.00
             828.00,339.00 828.00,391.00 828.00,391.00
             828.05,400.75 830.35,412.20 836.53,419.98
             846.76,432.88 874.10,433.67 885.82,422.67
             892.83,416.09 895.89,404.36 896.00,395.00
             896.00,395.00 896.00,339.00 896.00,339.00
             896.00,339.00 880.00,339.00 880.00,339.00
             880.00,339.00 880.00,392.00 880.00,392.00
             879.95,403.46 875.10,417.22 861.00,415.80
             848.15,414.51 845.05,401.71 845.00,391.00
             845.00,391.00 845.00,339.00 845.00,339.00 Z
           M 939.00,381.00
           C 939.00,381.00 927.72,351.00 927.72,351.00
             927.72,351.00 922.30,339.99 922.30,339.99
             922.30,339.99 905.00,339.00 905.00,339.00
             905.00,339.00 924.42,381.00 924.42,381.00
             928.77,390.96 931.98,392.64 932.00,404.00
             932.00,404.00 932.00,429.00 932.00,429.00
             932.00,429.00 949.00,429.00 949.00,429.00
             949.00,429.00 949.00,403.00 949.00,403.00
             949.02,391.94 952.52,387.61 957.24,378.00
             957.24,378.00 975.00,339.00 975.00,339.00
             975.00,339.00 964.00,339.00 964.00,339.00
             956.96,339.13 957.27,340.33 953.40,350.00
             953.40,350.00 941.00,381.00 941.00,381.00
             941.00,381.00 939.00,381.00 939.00,381.00 Z
           M 335.00,352.00
           C 335.00,352.00 339.87,366.00 339.87,366.00
             339.87,366.00 347.00,392.00 347.00,392.00
             347.00,392.00 324.00,392.00 324.00,392.00
             324.00,392.00 335.00,352.00 335.00,352.00 Z
           M 496.00,353.00
           C 505.20,353.00 513.26,352.16 520.97,358.39
             533.47,368.45 533.25,399.41 520.97,409.61
             513.47,415.82 505.00,415.00 496.00,415.00
             496.00,415.00 496.00,353.00 496.00,353.00 Z" />
</svg>
