<?xml version="1.0" encoding="UTF-8" standalone="no"?>
<!DOCTYPE svg PUBLIC "-//W3C//DTD SVG 20010904//EN"
              "http://www.w3.org/TR/2001/REC-SVG-20010904/DTD/svg10.dtd">

<svg xmlns="http://www.w3.org/2000/svg"
     width="15in" height="10in"
     viewBox="0 0 1080 720">
  <path id="Selection"
        fill="none" stroke="black" stroke-width="1"
        d="M 700.00,323.00
           C 702.12,317.58 704.84,315.02 709.00,311.04
             723.13,297.53 735.76,296.91 754.00,297.00
             764.74,297.05 773.51,300.51 782.00,307.00
             786.60,299.31 790.39,298.04 799.00,298.00
             813.50,297.93 824.79,295.19 832.00,311.00
             834.28,306.74 835.70,302.88 840.04,300.23
             843.97,297.82 847.61,298.01 852.00,298.00
             852.00,298.00 891.00,298.00 891.00,298.00
             903.21,298.15 903.49,302.73 911.00,310.00
             914.67,295.19 930.28,297.98 942.00,298.00
             946.87,298.01 950.73,297.84 954.91,300.85
             958.68,303.57 963.60,311.83 966.19,316.00
             966.19,316.00 984.87,346.00 984.87,346.00
             985.92,348.87 986.09,351.97 985.96,355.00
             985.66,361.91 982.12,366.82 979.42,373.00
             979.42,373.00 967.74,398.00 967.74,398.00
             967.74,398.00 960.62,413.00 960.62,413.00
             958.01,419.89 959.01,431.39 959.00,439.00
             958.98,451.18 955.16,457.84 942.00,458.00
             936.61,458.06 923.44,458.65 919.00,456.77
             912.52,454.03 905.83,442.33 903.00,436.00
             903.00,436.00 901.00,436.00 901.00,436.00
             895.20,448.98 883.05,457.68 869.00,459.85
             869.00,459.85 850.00,459.85 850.00,459.85
             844.15,459.93 838.33,458.55 833.00,456.10
             825.96,452.87 821.38,448.36 816.00,443.00
             810.90,453.28 792.00,459.87 781.00,460.00
             781.00,460.00 768.00,460.00 768.00,460.00
             731.23,459.83 719.22,424.93 701.00,400.00
             701.00,400.00 689.98,436.00 689.98,436.00
             688.46,440.92 686.66,449.04 683.44,452.81
             679.70,457.20 675.42,457.93 670.00,458.00
             670.00,458.00 653.00,458.00 653.00,458.00
             641.81,457.98 638.05,455.67 632.00,446.00
             629.93,451.39 627.83,455.17 622.00,457.15
             618.11,458.47 606.69,458.00 602.00,458.00
             602.00,458.00 562.00,458.00 562.00,458.00
             550.47,457.94 546.95,454.15 542.00,444.00
             533.31,450.94 525.08,455.54 514.00,457.77
             514.00,457.77 477.00,457.77 477.00,457.77
             460.67,457.97 458.93,449.59 450.95,437.00
             447.33,431.30 435.35,414.14 433.80,409.00
             432.48,404.61 433.00,388.57 433.00,383.00
             433.00,383.00 422.00,383.00 422.00,383.00
             422.00,383.00 422.00,439.00 422.00,439.00
             422.00,441.99 422.12,445.13 421.15,448.00
             416.78,460.85 400.70,458.13 390.00,458.00
             383.34,457.92 381.71,456.49 379.00,456.49
             379.00,456.49 371.00,457.95 371.00,457.95
             371.00,457.95 354.00,457.95 354.00,457.95
             350.07,457.99 346.64,458.17 343.01,456.31
             336.05,452.74 333.77,443.73 327.00,438.00
             326.04,444.78 324.22,451.94 317.96,455.77
             312.55,459.08 299.59,458.04 293.00,458.00
             293.00,458.00 269.00,458.00 269.00,458.00
             264.87,458.00 259.82,458.38 256.00,456.77
             250.44,454.45 247.55,450.19 245.00,445.00
             242.72,449.26 241.30,453.12 236.96,455.77
             233.03,458.18 229.39,457.99 225.00,458.00
             218.05,458.01 206.77,459.24 201.09,455.15
             196.49,451.84 189.46,439.29 186.00,434.00
             186.00,437.38 186.23,444.00 185.44,447.00
             181.88,460.57 166.71,458.02 156.00,458.00
             139.86,457.97 136.98,449.55 129.19,437.00
             129.19,437.00 111.85,409.00 111.85,409.00
             110.39,404.61 111.01,385.86 111.00,380.00
             111.00,377.82 111.09,375.08 110.49,373.00
             109.58,369.82 105.32,363.99 103.33,361.00
             103.33,361.00 88.13,337.00 88.13,337.00
             85.07,330.90 85.92,321.82 86.00,315.00
             86.14,303.90 91.90,298.14 103.00,298.00
             103.00,298.00 169.00,298.00 169.00,298.00
             169.00,298.00 178.00,298.66 178.00,298.66
             178.00,298.66 189.00,298.00 189.00,298.00
             195.95,297.99 207.23,296.76 212.91,300.85
             216.19,303.21 218.75,307.62 221.00,311.00
             224.71,296.23 234.82,298.00 247.00,298.00
             253.11,298.00 258.64,297.26 264.00,300.85
             269.83,304.76 271.99,311.35 277.00,316.00
             277.43,313.19 277.98,310.60 279.19,308.00
             285.25,294.93 301.14,297.94 313.00,298.00
             323.43,298.05 323.21,300.70 326.42,300.68
             329.75,300.66 329.28,298.02 341.00,298.00
             341.00,298.00 405.00,298.00 405.00,298.00
             417.06,298.15 419.71,303.76 425.69,313.00
             425.69,313.00 433.00,324.00 433.00,324.00
             433.00,316.68 431.68,308.00 437.34,302.34
             443.19,296.49 453.31,298.00 461.00,298.00
             485.63,298.00 499.89,296.06 519.00,315.00
             519.30,301.81 525.68,298.02 538.00,298.00
             538.00,298.00 612.00,298.00 612.00,298.00
             627.36,298.02 629.15,304.22 637.00,316.00
             638.59,310.55 639.58,305.44 644.18,301.56
             650.16,296.51 663.32,297.91 671.00,298.00
             674.90,298.05 677.51,298.19 681.00,300.23
             687.02,303.75 694.87,316.59 698.00,323.00
             698.00,323.00 700.00,323.00 700.00,323.00 Z
           M 195.00,350.00
           C 195.00,350.00 127.00,350.00 127.00,350.00
             127.00,350.00 127.00,365.00 127.00,365.00
             127.00,365.00 152.00,365.00 152.00,365.00
             152.00,365.00 152.00,440.00 152.00,440.00
             152.00,440.00 169.00,440.00 169.00,440.00
             169.00,440.00 169.00,365.00 169.00,365.00
             169.00,365.00 195.00,365.00 195.00,365.00
             195.00,365.00 195.00,350.00 195.00,350.00 Z
           M 227.00,350.00
           C 227.00,350.00 210.00,350.00 210.00,350.00
             210.00,350.00 210.00,440.00 210.00,440.00
             210.00,440.00 227.00,440.00 227.00,440.00
             227.00,440.00 227.00,401.00 227.00,401.00
             227.00,401.00 262.00,401.00 262.00,401.00
             262.00,401.00 262.00,440.00 262.00,440.00
             262.00,440.00 279.00,440.00 279.00,440.00
             279.00,440.00 279.00,350.00 279.00,350.00
             279.00,350.00 262.00,350.00 262.00,350.00
             262.00,350.00 262.00,386.00 262.00,386.00
             262.00,386.00 227.00,386.00 227.00,386.00
             227.00,386.00 227.00,350.00 227.00,350.00 Z
           M 340.00,350.00
           C 340.00,350.00 328.00,350.00 328.00,350.00
             325.86,350.00 322.29,349.77 320.51,351.02
             317.56,353.09 314.33,366.97 313.00,371.00
             313.00,371.00 291.00,440.00 291.00,440.00
             291.00,440.00 306.58,439.43 306.58,439.43
             306.58,439.43 310.12,433.00 310.12,433.00
             310.12,433.00 314.00,416.00 314.00,416.00
             314.00,416.00 336.00,416.00 336.00,416.00
             337.70,416.01 340.32,415.94 341.87,416.60
             347.59,419.02 347.53,434.65 350.93,438.40
             353.23,440.93 364.39,440.00 368.00,440.00
             368.00,440.00 359.67,412.00 359.67,412.00
             359.67,412.00 340.00,350.00 340.00,350.00 Z
           M 431.00,350.00
           C 431.00,350.00 363.00,350.00 363.00,350.00
             363.00,350.00 363.00,365.00 363.00,365.00
             363.00,365.00 388.00,365.00 388.00,365.00
             388.00,365.00 388.00,440.00 388.00,440.00
             388.00,440.00 405.00,440.00 405.00,440.00
             405.00,440.00 405.00,365.00 405.00,365.00
             405.00,365.00 431.00,365.00 431.00,365.00
             431.00,365.00 431.00,350.00 431.00,350.00 Z
           M 473.00,440.00
           C 488.06,440.00 511.24,441.37 524.00,432.90
             539.67,422.49 541.20,407.06 541.00,390.00
             540.85,377.38 535.71,364.85 525.00,357.60
             511.89,348.72 488.48,350.00 473.00,350.00
             473.00,350.00 473.00,440.00 473.00,440.00 Z
           M 613.00,350.00
           C 613.00,350.00 559.00,350.00 559.00,350.00
             559.00,350.00 559.00,440.00 559.00,440.00
             559.00,440.00 615.00,440.00 615.00,440.00
             615.00,440.00 615.00,425.00 615.00,425.00
             615.00,425.00 576.00,425.00 576.00,425.00
             576.00,425.00 576.00,401.00 576.00,401.00
             576.00,401.00 608.00,401.00 608.00,401.00
             608.00,401.00 608.00,386.00 608.00,386.00
             608.00,386.00 576.00,386.00 576.00,386.00
             576.00,386.00 576.00,365.00 576.00,365.00
             576.00,365.00 613.00,365.00 613.00,365.00
             613.00,365.00 613.00,350.00 613.00,350.00 Z
           M 640.00,350.00
           C 640.00,350.00 622.00,350.00 622.00,350.00
             622.00,350.00 628.28,371.00 628.28,371.00
             628.28,371.00 642.72,419.00 642.72,419.00
             642.72,419.00 649.00,440.00 649.00,440.00
             649.00,440.00 670.00,440.00 670.00,440.00
             670.00,440.00 678.28,412.00 678.28,412.00
             678.28,412.00 697.00,350.00 697.00,350.00
             697.00,350.00 688.00,350.00 688.00,350.00
             685.97,350.00 682.36,349.74 680.70,350.99
             678.19,352.89 676.04,364.50 675.12,368.00
             675.12,368.00 661.00,423.00 661.00,423.00
             656.35,418.12 654.80,406.70 653.13,400.00
             653.13,400.00 640.00,350.00 640.00,350.00 Z
           M 792.00,371.00
           C 793.80,368.93 798.84,363.70 798.81,361.02
             798.77,358.16 795.18,355.95 793.00,354.68
             786.28,350.76 781.59,350.01 774.00,350.00
             760.99,349.98 751.22,352.96 742.18,363.01
             727.43,379.43 727.17,412.64 742.18,428.96
             749.83,437.27 760.97,440.98 772.00,441.00
             780.63,441.01 796.28,439.53 800.98,430.91
             802.20,428.67 802.00,425.50 802.00,423.00
             802.00,423.00 802.00,391.00 802.00,391.00
             802.00,391.00 771.00,391.00 771.00,391.00
             771.00,391.00 771.00,405.00 771.00,405.00
             771.00,405.00 787.00,405.00 787.00,405.00
             787.00,409.15 787.90,420.66 785.40,423.57
             781.37,428.29 762.77,430.16 753.13,415.00
             743.20,399.37 748.28,368.12 770.00,364.33
             779.10,362.74 784.63,366.51 792.00,371.00 Z
           M 839.00,350.00
           C 839.00,350.00 822.00,350.00 822.00,350.00
             822.00,350.00 822.00,402.00 822.00,402.00
             822.05,411.75 824.35,423.20 830.53,430.98
             840.76,443.88 868.10,444.67 879.82,433.67
             886.83,427.09 889.89,415.36 890.00,406.00
             890.00,406.00 890.00,350.00 890.00,350.00
             890.00,350.00 874.00,350.00 874.00,350.00
             874.00,350.00 874.00,403.00 874.00,403.00
             873.95,414.46 869.10,428.22 855.00,426.80
             842.15,425.51 839.05,412.71 839.00,402.00
             839.00,402.00 839.00,350.00 839.00,350.00 Z
           M 933.00,392.00
           C 933.00,392.00 921.72,362.00 921.72,362.00
             921.72,362.00 916.30,350.99 916.30,350.99
             916.30,350.99 899.00,350.00 899.00,350.00
             899.00,350.00 918.42,392.00 918.42,392.00
             922.77,401.96 925.98,403.64 926.00,415.00
             926.00,415.00 926.00,440.00 926.00,440.00
             926.00,440.00 943.00,440.00 943.00,440.00
             943.00,440.00 943.00,414.00 943.00,414.00
             943.02,402.94 946.52,398.61 951.24,389.00
             951.24,389.00 969.00,350.00 969.00,350.00
             969.00,350.00 958.00,350.00 958.00,350.00
             950.96,350.13 951.27,351.33 947.40,361.00
             947.40,361.00 935.00,392.00 935.00,392.00
             935.00,392.00 933.00,392.00 933.00,392.00 Z
           M 329.00,363.00
           C 329.00,363.00 333.87,377.00 333.87,377.00
             333.87,377.00 341.00,403.00 341.00,403.00
             341.00,403.00 318.00,403.00 318.00,403.00
             318.00,403.00 329.00,363.00 329.00,363.00 Z
           M 490.00,364.00
           C 499.20,364.00 507.26,363.16 514.97,369.39
             527.47,379.45 527.25,410.41 514.97,420.61
             507.47,426.82 499.00,426.00 490.00,426.00
             490.00,426.00 490.00,364.00 490.00,364.00 Z" />
</svg>
